<svg width="139" height="139" viewBox="0 0 139 139" fill="none" xmlns="http://www.w3.org/2000/svg">
<path fill-rule="evenodd" clip-rule="evenodd" d="M61.8275 1.39436e-07C51.9677 0.000840106 42.251 2.35948 33.4882 6.87914C24.7253 11.3988 17.1704 17.9484 11.4537 25.9815C5.73704 34.0147 2.02438 43.2984 0.625495 53.0581C-0.773392 62.8178 0.182052 72.7706 3.41212 82.086C6.64218 91.4014 12.0532 99.8093 19.1937 106.608C26.3342 113.407 34.9972 118.4 44.4599 121.17C53.9225 123.94 63.9105 124.408 73.5904 122.533C83.2704 120.658 92.3616 116.496 100.106 110.393L126.672 136.958C128.044 138.283 129.881 139.016 131.789 139C133.696 138.983 135.521 138.218 136.869 136.869C138.218 135.521 138.983 133.696 139 131.789C139.016 129.882 138.283 128.044 136.958 126.672L110.392 100.107C117.579 90.9898 122.054 80.0333 123.305 68.4916C124.555 56.9498 122.531 45.2891 117.464 34.844C112.397 24.3988 104.491 15.5911 94.652 9.42901C84.8127 3.26688 73.4373 -0.000779379 61.8275 1.39436e-07ZM14.5436 61.8304C14.5436 49.2904 19.5253 37.2641 28.3928 28.3969C37.2602 19.5298 49.2871 14.5483 61.8275 14.5483C74.368 14.5483 86.3948 19.5298 95.2623 28.3969C104.13 37.2641 109.111 49.2904 109.111 61.8304C109.111 74.3704 104.13 86.3968 95.2623 95.2639C86.3948 104.131 74.368 109.113 61.8275 109.113C49.2871 109.113 37.2602 104.131 28.3928 95.2639C19.5253 86.3968 14.5436 74.3704 14.5436 61.8304Z" fill="black"/>
</svg>
