<svg width="35" height="34" viewBox="0 0 35 34" fill="none" xmlns="http://www.w3.org/2000/svg">
<path d="M17.1971 34C7.79714 34 0.197144 26.4 0.197144 17C0.197144 7.6 7.79714 0 17.1971 0C26.5971 0 34.1971 7.6 34.1971 17C34.1971 26.4 26.4971 34 17.1971 34ZM17.1971 2C8.89714 2 2.19714 8.7 2.19714 17C2.19714 25.3 8.89714 32 17.1971 32C25.4971 32 32.1971 25.3 32.1971 17C32.1971 8.7 25.3971 2 17.1971 2Z" fill="black"/>
<path d="M7.39717 29.3L5.59717 28.5C6.09717 27.3 7.69717 26.6 9.39717 25.8C11.0972 25 13.1972 24.1 13.1972 23V21.5C12.5972 21 11.5972 19.9 11.3972 18.3C10.8972 17.8 10.0972 16.9 10.0972 15.7C10.0972 15 10.3972 14.4 10.5972 14C10.3972 13.2 10.1972 11.7 10.1972 10.5C10.1972 6.6 12.8972 4 17.1972 4C18.3972 4 19.8972 4.3 20.6972 5.2C22.5972 5.6 24.1972 7.8 24.1972 10.5C24.1972 12.2 23.8972 13.6 23.6972 14.3C23.8972 14.6 24.0972 15.1 24.0972 15.7C24.0972 17 23.3972 17.9 22.7972 18.3C22.5972 19.9 21.6972 20.9 21.0972 21.4V23C21.0972 23.9 22.8972 24.6 24.4972 25.2C26.3972 25.9 28.3972 26.7 29.0972 28.3L27.1972 29C26.8972 28.2 25.2972 27.6 23.7972 27.1C21.5972 26.3 19.0972 25.4 19.0972 23.1V20.5L19.5972 20.2C19.5972 20.2 20.7972 19.4 20.7972 17.8V17.1L21.3972 16.8C21.4972 16.8 21.9972 16.5 21.9972 15.7C21.9972 15.5 21.7972 15.2 21.6972 15.1L21.2972 14.7L21.4972 14.2C21.4972 14.2 21.9972 12.6 21.9972 10.6C21.9972 8.7 20.8972 7.3 19.9972 7.3H19.3972L19.0972 6.8C19.0972 6.4 18.3972 6 17.1972 6C14.0972 6 12.1972 7.7 12.1972 10.5C12.1972 11.8 12.6972 14 12.6972 14L12.7972 14.5L12.3972 15C12.2972 15 12.0972 15.3 12.0972 15.7C12.0972 16.2 12.6972 16.8 12.9972 17L13.3972 17.3V17.8C13.3972 19.3 14.6972 20.1 14.6972 20.2L15.1972 20.5V23.1C15.1972 25.5 12.5972 26.7 10.1972 27.7C9.09717 28.1 7.59717 28.8 7.39717 29.3Z" fill="black"/>
</svg>
